<svg width="35.000000" height="35.000000" viewBox="0 0 35 35" fill="none" xmlns="http://www.w3.org/2000/svg" xmlns:xlink="http://www.w3.org/1999/xlink">
	<desc>
			Created with Pixso.
	</desc>
	<defs>
		<clipPath id="clip5_87">
			<rect id="heroicons-solid:menu-alt-2" width="35.000000" height="35.000000" fill="white" fill-opacity="0"/>
		</clipPath>
	</defs>
	<rect id="heroicons-solid:menu-alt-2" width="35.000000" height="35.000000" fill="#FFFFFF" fill-opacity="0"/>
	<g clip-path="url(#clip5_87)">
		<path id="Vector" d="M5.25 8.75C5.25 8.28 5.43 7.84 5.76 7.51C6.09 7.18 6.53 7 7 7L28 7C28.46 7 28.9 7.18 29.23 7.51C29.56 7.84 29.75 8.28 29.75 8.75C29.75 9.21 29.56 9.65 29.23 9.98C28.9 10.31 28.46 10.5 28 10.5L7 10.5C6.53 10.5 6.09 10.31 5.76 9.98C5.43 9.65 5.25 9.21 5.25 8.75ZM5.25 17.5C5.25 17.03 5.43 16.59 5.76 16.26C6.09 15.93 6.53 15.75 7 15.75L28 15.75C28.46 15.75 28.9 15.93 29.23 16.26C29.56 16.59 29.75 17.03 29.75 17.5C29.75 17.96 29.56 18.4 29.23 18.73C28.9 19.06 28.46 19.25 28 19.25L7 19.25C6.53 19.25 6.09 19.06 5.76 18.73C5.43 18.4 5.25 17.96 5.25 17.5ZM5.25 26.25C5.25 25.78 5.43 25.34 5.76 25.01C6.09 24.68 6.53 24.5 7 24.5L17.5 24.5C17.96 24.5 18.4 24.68 18.73 25.01C19.06 25.34 19.25 25.78 19.25 26.25C19.25 26.71 19.06 27.15 18.73 27.48C18.4 27.81 17.96 28 17.5 28L7 28C6.53 28 6.09 27.81 5.76 27.48C5.43 27.15 5.25 26.71 5.25 26.25Z" fill="#FFFFFF" fill-opacity="1.000000" fill-rule="evenodd"/>
	</g>
</svg>
