<svg width="109.000000" height="109.000000" viewBox="0 0 109 109" fill="none" xmlns="http://www.w3.org/2000/svg" xmlns:xlink="http://www.w3.org/1999/xlink">
	<desc>
			Created with Pixso.
	</desc>
	<defs>
		<filter id="filter_5_73_dd" x="0.000000" y="0.000000" width="109.000000" height="109.000000" filterUnits="userSpaceOnUse" color-interpolation-filters="sRGB">
			<feFlood flood-opacity="0" result="BackgroundImageFix"/>
			<feColorMatrix in="SourceAlpha" type="matrix" values="0 0 0 0 0 0 0 0 0 0 0 0 0 0 0 0 0 0 127 0" result="hardAlpha"/>
			<feOffset dx="0" dy="0"/>
			<feGaussianBlur stdDeviation="6.66667"/>
			<feComposite in2="hardAlpha" operator="out" k2="-1" k3="1"/>
			<feColorMatrix type="matrix" values="0 0 0 0 0 0 0 0 0 0 0 0 0 0 0 0 0 0 0.5 0"/>
			<feBlend mode="normal" in2="BackgroundImageFix" result="effect_dropShadow_1"/>
			<feBlend mode="normal" in="SourceGraphic" in2="effect_dropShadow_1" result="shape"/>
		</filter>
		<clipPath id="clip5_73">
			<rect id="bx:mouse" width="69.000000" height="69.000000" transform="translate(20.000000 20.000000)" fill="white" fill-opacity="0"/>
		</clipPath>
	</defs>
	<g filter="url(#filter_5_73_dd)">
		<rect id="bx:mouse" width="69.000000" height="69.000000" transform="translate(20.000000 20.000000)" fill="#FFFFFF" fill-opacity="0"/>
		<g clip-path="url(#clip5_73)">
			<path id="Vector" d="M54.42 83.25L54.5 83.25C65.59 83.25 74.62 74.22 74.62 63.12L74.62 45.87C74.62 34.83 65.63 25.82 54.55 25.75L54.38 25.75C43.34 25.81 34.37 34.82 34.37 45.87L34.37 63.12C34.37 74.22 43.37 83.25 54.42 83.25ZM40.12 45.87C40.13 42.07 41.64 38.42 44.32 35.73C47.01 33.03 50.65 31.51 54.45 31.5C62.4 31.51 68.87 37.96 68.87 45.87L68.87 63.12C68.87 71.05 62.42 77.5 54.5 77.5L54.42 77.5C46.4 77.5 40.12 71.18 40.12 63.12L40.12 45.87Z" fill="#FFFFFF" fill-opacity="1.000000" fill-rule="nonzero"/>
			<path id="Vector" d="M51.62 37.25L57.37 37.25L57.37 54.5L51.62 54.5L51.62 37.25Z" fill="#FFFFFF" fill-opacity="1.000000" fill-rule="nonzero"/>
		</g>
	</g>
</svg>
