<svg width="38.000000" height="38.000000" viewBox="0 0 38 38" fill="none" xmlns="http://www.w3.org/2000/svg" xmlns:xlink="http://www.w3.org/1999/xlink">
	<desc>
			Created with Pixso.
	</desc>
	<defs/>
	<path id="Vector" d="M13.97 10.91C14.53 10.59 15.22 10.54 15.77 10.94L26.45 17.47C26.98 17.8 27.31 18.37 27.31 19C27.31 19.62 26.98 20.19 26.45 20.52L15.77 27.05C15.22 27.38 14.53 27.4 13.97 27.08C13.41 26.77 13.06 26.17 13.06 25.53L13.06 12.4C13.06 11.82 13.41 11.22 13.97 10.91ZM38 19C38 29.49 29.49 38 19 38C8.5 38 0 29.49 0 19C0 8.5 8.5 0 19 0C29.49 0 38 8.5 38 19ZM19 3.56C10.47 3.56 3.56 10.47 3.56 19C3.56 27.52 10.47 34.43 19 34.43C27.52 34.43 34.43 27.52 34.43 19C34.43 10.47 27.52 3.56 19 3.56Z" fill="#FFFFFF" fill-opacity="1.000000" fill-rule="nonzero"/>
</svg>
