<svg width="35.000000" height="35.000000" viewBox="0 0 35 35" fill="none" xmlns="http://www.w3.org/2000/svg" xmlns:xlink="http://www.w3.org/1999/xlink">
	<desc>
			Created with Pixso.
	</desc>
	<defs>
		<clipPath id="clip5_83">
			<rect id="fa-solid:search" width="35.000000" height="35.000000" fill="white" fill-opacity="0"/>
		</clipPath>
	</defs>
	<rect id="fa-solid:search" width="35.000000" height="35.000000" fill="#FFFFFF" fill-opacity="0"/>
	<g clip-path="url(#clip5_83)">
		<path id="Vector" d="M29.59 25.94L23.74 20.09C23.48 19.83 23.12 19.68 22.75 19.68L21.79 19.68C23.41 17.62 24.37 15.01 24.37 12.18C24.37 5.45 18.92 0 12.18 0C5.45 0 0 5.45 0 12.18C0 18.92 5.45 24.37 12.18 24.37C15.01 24.37 17.62 23.41 19.68 21.79L19.68 22.75C19.68 23.12 19.83 23.48 20.09 23.74L25.94 29.59C26.49 30.14 27.38 30.14 27.92 29.59L29.58 27.93C30.13 27.38 30.13 26.49 29.59 25.94ZM12.18 19.68C8.04 19.68 4.68 16.33 4.68 12.18C4.68 8.04 8.03 4.68 12.18 4.68C16.33 4.68 19.68 8.03 19.68 12.18C19.68 16.33 16.33 19.68 12.18 19.68Z" fill="#FFFFFF" fill-opacity="1.000000" fill-rule="nonzero"/>
	</g>
</svg>
